<svg xmlns="http://www.w3.org/2000/svg" version="1.1" viewBox="0 0 100 100">
  <path d="m58.84 31.367c2.0664 1.7422 4.0898 3.6016 6.0586 5.5664 17.141 17.145 25.031 37.43 16.5 45.965-5.0078 5.0039-14.035 4.4375-24.438-0.64453-1.2383-0.60547-1.7539-2.1055-1.1484-3.3438 0.60547-1.2422 2.1055-1.7539 3.3438-1.1484 8.6992 4.25 15.621 4.6836 18.707 1.6016 5.7852-5.7891-1.0977-23.492-16.5-38.891-1.8672-1.8672-3.7891-3.6328-5.7461-5.2812-1.0547-0.88672-1.1875-2.4648-0.30078-3.5195 0.89062-1.0586 2.4688-1.1914 3.5234-0.30469zm11.324 25.496c1.0547 0.89453 1.1836 2.4727 0.28906 3.5234-1.6992 2.0039-3.5547 4.0117-5.5547 6.0117-17.145 17.141-37.43 25.031-45.961 16.5-5.0039-5.0039-4.4414-14.023 0.63672-24.422 0.60547-1.2383 2.1016-1.7539 3.3398-1.1484 1.2422 0.60547 1.7578 2.1016 1.1523 3.3438-4.2461 8.6914-4.6758 15.609-1.5938 18.691 5.7852 5.7852 23.488-1.0977 38.891-16.5 1.9062-1.9062 3.668-3.8125 5.2773-5.7109 0.89453-1.0508 2.4688-1.1797 3.5234-0.28906zm-26.809-35.793c1.2383 0.60547 1.7539 2.1055 1.1484 3.3438-0.60547 1.2422-2.1016 1.7578-3.3438 1.1523-8.6914-4.2461-15.605-4.6758-18.688-1.5938-5.7891 5.7852 1.0977 23.488 16.5 38.891 1.8594 1.8633 3.7773 3.6211 5.7305 5.2656 1.0547 0.89062 1.1875 2.4688 0.30078 3.5234-0.89062 1.0547-2.4688 1.1914-3.5234 0.30078-2.0625-1.7344-4.082-3.5938-6.0469-5.5547-17.141-17.145-25.031-37.43-16.496-45.961 5-5.0039 14.02-4.4414 24.418 0.63281zm6.9453 21.918c0.51172 0.13281 0.90234 0.53125 1.0273 1.043l1.0352 4.3203c0.17969 0.74609 0.75 1.3398 1.4922 1.5469l3.8125 1.0703c0.69922 0.19531 1.1055 0.91797 0.91016 1.6172-0.12891 0.45703-0.49609 0.8125-0.95703 0.92187l-3.6133 0.86719c-0.79297 0.19141-1.4023 0.81641-1.5781 1.6133l-1.0742 4.9258c-0.16016 0.75-0.90234 1.2266-1.6523 1.0625-0.53125-0.11719-0.94531-0.53125-1.0586-1.0625l-1.0742-4.918c-0.17187-0.80078-0.79297-1.4258-1.5859-1.6133l-3.7422-0.88281c-0.71094-0.16406-1.1484-0.875-0.98047-1.5859 0.10938-0.46875 0.46484-0.83984 0.92578-0.96875l3.7617-1.0547c0.72656-0.20312 1.293-0.77734 1.4805-1.5078l1.1406-4.3789c0.19531-0.75781 0.97266-1.2148 1.7305-1.0156zm31.098-22.551c5.0078 5.0078 4.4453 14.059-0.64063 24.473-0.60547 1.2422-2.1055 1.7539-3.3438 1.1484-1.2422-0.60547-1.7578-2.1016-1.1484-3.3438 4.2539-8.7109 4.6875-15.652 1.5977-18.742-5.7891-5.7891-23.492 1.0977-38.891 16.5-1.875 1.8711-3.6484 3.8008-5.3008 5.7656-0.89062 1.0586-2.4648 1.1914-3.5234 0.30469-1.0547-0.89062-1.1914-2.4648-0.30078-3.5234 1.7422-2.0742 3.6133-4.1094 5.5859-6.0859 17.145-17.141 37.43-25.031 45.965-16.496z"/>
</svg>
